<?xml version="1.0" encoding="utf-8"?>
<!-- Generator: Adobe Illustrator 20.1.0, SVG Export Plug-In . SVG Version: 6.00 Build 0)  -->
<svg version="1.1" id="Layer_2" xmlns="http://www.w3.org/2000/svg" xmlns:xlink="http://www.w3.org/1999/xlink" x="0px" y="0px"
	 viewBox="0 0 670 130" style="enable-background:new 0 0 670 130;" xml:space="preserve">
<style type="text/css">
	.st0{clip-path:url(#XMLID_52_);fill:url(#XMLID_53_);}
	.st1{clip-path:url(#XMLID_54_);fill:url(#XMLID_55_);}
	.st2{clip-path:url(#XMLID_56_);fill:url(#XMLID_57_);}
	.st3{clip-path:url(#XMLID_58_);fill:url(#XMLID_59_);}
	.st4{fill:none;stroke:#FFFFFF;stroke-width:5.887429e-02;stroke-miterlimit:10;}
	.st5{fill:#280071;}
	.st6{fill:#00A9E0;}
	.st7{clip-path:url(#XMLID_60_);fill:url(#XMLID_61_);}
	.st8{clip-path:url(#XMLID_62_);fill:url(#XMLID_63_);}
	.st9{clip-path:url(#XMLID_64_);fill:url(#XMLID_65_);}
	.st10{clip-path:url(#XMLID_66_);fill:url(#XMLID_67_);}
	.st11{clip-path:url(#XMLID_68_);fill:url(#XMLID_69_);}
	.st12{clip-path:url(#XMLID_70_);fill:url(#XMLID_71_);}
	.st13{clip-path:url(#XMLID_72_);fill:url(#XMLID_73_);}
	.st14{clip-path:url(#XMLID_74_);fill:url(#XMLID_75_);}
</style>
<g id="XMLID_1460_">
	<defs>
		<path id="XMLID_1461_" d="M63.5,698.1c7.5-1.1,16.6-6,20.6-12.6c-13.9-19-21.1-36.5-23-61.4h17.7c0.9,21.8,7.1,35.9,14.4,48
			c6.5-13.9,9.8-26.2,10.9-48h17.5c-1.7,22.9-9.2,43.2-18.5,59.6c-10.7,18.8-23.4,27.2-36.8,29.4L63.5,698.1z"/>
	</defs>
	<clipPath id="XMLID_52_">
		<use xlink:href="#XMLID_1461_"  style="overflow:visible;"/>
	</clipPath>
	
		<linearGradient id="XMLID_53_" gradientUnits="userSpaceOnUse" x1="-93.4663" y1="374.27" x2="206.9326" y2="374.27" gradientTransform="matrix(0.992 -0.992 1.0049 1.0049 -234.5512 304.2034)">
		<stop  offset="0" style="stop-color:#FF2C47"/>
		<stop  offset="0.1743" style="stop-color:#C11F53"/>
		<stop  offset="0.574" style="stop-color:#280071"/>
	</linearGradient>
	<polygon id="XMLID_1463_" class="st0" points="444.5,572.7 146.5,870.7 -48.9,675.3 249.1,377.3 	"/>
</g>
<g id="XMLID_1455_">
	<defs>
		<path id="XMLID_1456_" d="M124.7,656.6c0-20.4,12.3-34.1,31.9-34.1c19.8,0,31.8,13.7,31.8,34.1c0,20.6-12,34.2-31.8,34.2
			C136.9,690.8,124.7,677.1,124.7,656.6z M170.4,656.6c0-12-4.7-19.5-13.8-19.5c-8.9,0-13.9,7.5-13.9,19.5c0,12.1,5,19.7,13.9,19.7
			C165.6,676.2,170.4,668.7,170.4,656.6z"/>
	</defs>
	<clipPath id="XMLID_54_">
		<use xlink:href="#XMLID_1456_"  style="overflow:visible;"/>
	</clipPath>
	
		<linearGradient id="XMLID_55_" gradientUnits="userSpaceOnUse" x1="-96.631" y1="374.2222" x2="203.7679" y2="374.2222" gradientTransform="matrix(0.992 -0.992 1.0049 1.0049 -234.5512 304.2034)">
		<stop  offset="0" style="stop-color:#FF2C47"/>
		<stop  offset="0.1743" style="stop-color:#C11F53"/>
		<stop  offset="0.574" style="stop-color:#280071"/>
	</linearGradient>
	<polygon id="XMLID_1459_" class="st1" points="441.3,575.8 143.3,873.8 -52.1,678.4 245.9,380.4 	"/>
</g>
<g id="XMLID_1451_">
	<defs>
		<path id="XMLID_1452_" d="M197.8,628.1c8-3.4,19-5.6,28.9-5.6c18.6,0,29.4,9.2,29.4,26.2v40.6h-17.6v-39.3
			c0-8.8-4.1-12.9-11.9-12.9c-4.1,0-7.9,0.8-11.2,2.3v49.9h-17.5V628.1z"/>
	</defs>
	<clipPath id="XMLID_56_">
		<use xlink:href="#XMLID_1452_"  style="overflow:visible;"/>
	</clipPath>
	
		<linearGradient id="XMLID_57_" gradientUnits="userSpaceOnUse" x1="-96.631" y1="374.2222" x2="203.7679" y2="374.2222" gradientTransform="matrix(0.992 -0.992 1.0049 1.0049 -234.5512 304.2034)">
		<stop  offset="0" style="stop-color:#FF2C47"/>
		<stop  offset="0.1743" style="stop-color:#C11F53"/>
		<stop  offset="0.574" style="stop-color:#280071"/>
	</linearGradient>
	<polygon id="XMLID_1454_" class="st2" points="441.3,575.8 143.3,873.8 -52.1,678.4 245.9,380.4 	"/>
</g>
<g id="XMLID_1446_">
	<defs>
		<path id="XMLID_1447_" d="M264.7,656.6c0-20.4,12.3-34.1,31.9-34.1c19.8,0,31.8,13.7,31.8,34.1c0,20.6-12,34.2-31.8,34.2
			C277,690.8,264.7,677.1,264.7,656.6z M310.4,656.6c0-12-4.7-19.5-13.8-19.5c-8.9,0-13.9,7.5-13.9,19.5c0,12.1,5,19.7,13.9,19.7
			C305.7,676.2,310.4,668.7,310.4,656.6z"/>
	</defs>
	<clipPath id="XMLID_58_">
		<use xlink:href="#XMLID_1447_"  style="overflow:visible;"/>
	</clipPath>
	
		<linearGradient id="XMLID_59_" gradientUnits="userSpaceOnUse" x1="-74.2087" y1="396.3578" x2="226.1902" y2="396.3578" gradientTransform="matrix(0.992 -0.992 1.0049 1.0049 -234.5512 304.2034)">
		<stop  offset="0" style="stop-color:#FF2C47"/>
		<stop  offset="0.1743" style="stop-color:#C11F53"/>
		<stop  offset="0.574" style="stop-color:#280071"/>
	</linearGradient>
	<polygon id="XMLID_1450_" class="st3" points="485.8,575.8 187.8,873.8 -7.6,678.4 290.4,380.4 	"/>
</g>
<path id="XMLID_1445_" class="st4" d="M60,179"/>
<g id="XMLID_1435_">
	<path id="XMLID_1442_" class="st5" d="M481.8,657.1c-3.6-3-8.4-5-12.5-6.7c-5.7-2.4-10.7-4.4-10.7-8.2c0-1.7,0.8-3.2,2.2-4.3
		c1.5-1.2,3.6-1.8,5.8-1.8c7.2,0,12.9,5.1,12.9,5.1l1.4,1.3l6.4-11.9l-0.7-0.8c-0.3-0.3-7-7.2-19.9-7.2c-6.2,0-11.9,2-16,5.6
		c-4.2,3.6-6.5,8.7-6.5,14.2c0,5.4,2.1,9.7,6.3,13.2c3.6,3,8.1,4.9,12.4,6.8c5.9,2.5,11,4.7,11,8.7c0,3-2,6.2-7.7,6.2
		c-8.1,0-14.6-6.2-14.7-6.2l-1.2-1.2l-7.9,10.9l0.8,0.9c0.1,0.1,2.1,2.3,6,4.6c3.5,2.1,9.3,4.5,16.9,4.5c6.6,0,12.3-2,16.3-5.9
		c3.8-3.6,5.9-8.6,5.9-14.1C488.2,665.2,486.1,660.7,481.8,657.1z"/>
	<rect id="XMLID_1441_" x="548.5" y="623.7" class="st5" width="14.8" height="66.1"/>
	<path id="XMLID_1438_" class="st5" d="M539.3,660.1c-1.5-2.3-3.5-4.1-5.9-5.4c3.9-3.1,6-7.8,6-13.3c0-5.5-2.1-10-6-13.2
		c-3.7-3-8.9-4.6-14.9-4.6h-24.1v66.1h24.3c6.5,0,12-1.6,16.2-4.7c4.7-3.5,7.1-8.7,7.1-15.1C542,666.3,541.1,662.9,539.3,660.1z
		 M519.6,677.4h-11.3V636h9.9c4.5,0,7,2.5,7,6.8c0,4.4-2.3,6.6-6.8,6.6H515v12.2h4.6c2.5,0,4.6,0.8,6,2.3c1.5,1.6,2.1,3.1,2.1,5.3
		C527.8,674.3,524.6,677.4,519.6,677.4z"/>
	<path id="XMLID_1436_" class="st6" d="M398.1,622.5c-18.9,0-34.2,15.3-34.2,34.2c0,17.7,13.4,32.3,30.7,34.1v-24.9
		c-3.7-1.4-6.3-5-6.3-9.2c0-5.4,4.4-9.8,9.8-9.8c5.4,0,9.8,4.4,9.8,9.8c0,4.2-2.6,7.8-6.3,9.2v24.9c17.2-1.8,30.7-16.3,30.7-34.1
		C432.3,637.8,417,622.5,398.1,622.5z"/>
</g>
<g id="XMLID_22_">
	<defs>
		<path id="XMLID_23_" d="M7.8,105.9c9.9-1.5,21.8-7.9,27-16.6C16.5,64.3,7.1,41.3,4.6,8.7h23.3c1.2,28.7,9.4,47.1,18.9,63
			c8.5-18.3,12.9-34.4,14.2-63h23c-2.2,30-12.1,56.7-24.3,78.3c-14.1,24.6-30.7,35.7-48.3,38.6L7.8,105.9z"/>
	</defs>
	<clipPath id="XMLID_60_">
		<use xlink:href="#XMLID_23_"  style="overflow:visible;"/>
	</clipPath>
	
		<linearGradient id="XMLID_61_" gradientUnits="userSpaceOnUse" x1="162.8067" y1="61.2762" x2="557.1737" y2="61.2762" gradientTransform="matrix(0.992 -0.992 1.0049 1.0049 -234.5512 304.2034)">
		<stop  offset="0" style="stop-color:#FF2C47"/>
		<stop  offset="0.1743" style="stop-color:#C11F53"/>
		<stop  offset="0.574" style="stop-color:#280071"/>
	</linearGradient>
	<polygon id="XMLID_25_" class="st7" points="508,-58.7 116.8,332.5 -139.7,76 251.5,-315.2 	"/>
</g>
<g id="XMLID_17_">
	<defs>
		<path id="XMLID_18_" d="M88.1,51.4c0-26.8,16.1-44.8,41.9-44.8c26,0,41.7,17.9,41.7,44.8c0,27-15.8,44.9-41.7,44.9
			C104.2,96.3,88.1,78.4,88.1,51.4z M148.1,51.4c0-15.8-6.2-25.6-18.1-25.6c-11.7,0-18.3,9.9-18.3,25.6c0,15.9,6.5,25.8,18.3,25.8
			C141.9,77.2,148.1,67.3,148.1,51.4z"/>
	</defs>
	<clipPath id="XMLID_62_">
		<use xlink:href="#XMLID_18_"  style="overflow:visible;"/>
	</clipPath>
	
		<linearGradient id="XMLID_63_" gradientUnits="userSpaceOnUse" x1="158.6521" y1="61.2134" x2="553.0191" y2="61.2134" gradientTransform="matrix(0.992 -0.992 1.0049 1.0049 -234.5512 304.2034)">
		<stop  offset="0" style="stop-color:#FF2C47"/>
		<stop  offset="0.1743" style="stop-color:#C11F53"/>
		<stop  offset="0.574" style="stop-color:#280071"/>
	</linearGradient>
	<polygon id="XMLID_21_" class="st8" points="503.8,-54.6 112.6,336.6 -143.9,80.1 247.3,-311.2 	"/>
</g>
<g id="XMLID_13_">
	<defs>
		<path id="XMLID_14_" d="M184.1,14c10.6-4.5,25-7.4,37.9-7.4c24.5,0,38.6,12.1,38.6,34.4v53.3h-23.1V42.7
			c0-11.6-5.4-16.9-15.6-16.9c-5.4,0-10.4,1-14.8,3v65.5h-23V14z"/>
	</defs>
	<clipPath id="XMLID_64_">
		<use xlink:href="#XMLID_14_"  style="overflow:visible;"/>
	</clipPath>
	
		<linearGradient id="XMLID_65_" gradientUnits="userSpaceOnUse" x1="158.6521" y1="61.2134" x2="553.0191" y2="61.2134" gradientTransform="matrix(0.992 -0.992 1.0049 1.0049 -234.5512 304.2034)">
		<stop  offset="0" style="stop-color:#FF2C47"/>
		<stop  offset="0.1743" style="stop-color:#C11F53"/>
		<stop  offset="0.574" style="stop-color:#280071"/>
	</linearGradient>
	<polygon id="XMLID_16_" class="st9" points="503.8,-54.6 112.6,336.6 -143.9,80.1 247.3,-311.2 	"/>
</g>
<g id="XMLID_8_">
	<defs>
		<path id="XMLID_9_" d="M272,51.4c0-26.8,16.1-44.8,41.9-44.8c26,0,41.7,17.9,41.7,44.8c0,27-15.8,44.9-41.7,44.9
			C288.1,96.3,272,78.4,272,51.4z M332,51.4c0-15.8-6.2-25.6-18.1-25.6c-11.7,0-18.3,9.9-18.3,25.6c0,15.9,6.5,25.8,18.3,25.8
			C325.8,77.2,332,67.3,332,51.4z"/>
	</defs>
	<clipPath id="XMLID_66_">
		<use xlink:href="#XMLID_9_"  style="overflow:visible;"/>
	</clipPath>
	
		<linearGradient id="XMLID_67_" gradientUnits="userSpaceOnUse" x1="188.0884" y1="90.2733" x2="582.4554" y2="90.2733" gradientTransform="matrix(0.992 -0.992 1.0049 1.0049 -234.5512 304.2034)">
		<stop  offset="0" style="stop-color:#FF2C47"/>
		<stop  offset="0.1743" style="stop-color:#C11F53"/>
		<stop  offset="0.574" style="stop-color:#280071"/>
	</linearGradient>
	<polygon id="XMLID_12_" class="st10" points="562.2,-54.6 171,336.6 -85.5,80.1 305.7,-311.2 	"/>
</g>
<g id="XMLID_1_">
	<path id="XMLID_7_" class="st5" d="M556.9,52.2c-4.8-4-11-6.5-16.4-8.8c-7.5-3.1-14-5.8-14-10.8c0-2.2,1-4.2,2.9-5.6
		c2-1.5,4.7-2.4,7.7-2.4c9.4,0,16.9,6.7,17,6.7l1.8,1.7l8.3-15.6l-1-1c-0.4-0.4-9.1-9.5-26.1-9.5c-8.1,0-15.6,2.6-21.1,7.3
		c-5.5,4.8-8.6,11.4-8.6,18.6c0,7,2.7,12.7,8.3,17.4c4.7,3.9,10.6,6.4,16.3,8.9c7.7,3.3,14.4,6.2,14.4,11.4c0,3.9-2.6,8.1-10.1,8.1
		c-10.6,0-19.2-8.1-19.3-8.2l-1.6-1.6l-10.4,14.4l1,1.2c0.1,0.1,2.8,3.1,7.8,6c4.6,2.7,12.2,5.9,22.1,5.9c8.7,0,16.1-2.7,21.4-7.7
		c5-4.7,7.8-11.3,7.8-18.4C565.4,62.7,562.6,56.9,556.9,52.2z"/>
	<rect id="XMLID_6_" x="644.6" y="8.2" class="st5" width="19.4" height="86.8"/>
	<path id="XMLID_3_" class="st5" d="M632.4,56c-1.9-3-4.6-5.4-7.7-7c5.1-4.1,7.9-10.3,7.9-17.4c0-7.2-2.7-13.2-7.9-17.4
		c-4.9-3.9-11.7-6-19.6-6h-31.6V95h32c8.5,0,15.8-2.1,21.2-6.2c6.1-4.6,9.4-11.5,9.4-19.8C636,64.2,634.7,59.7,632.4,56z
		 M606.6,78.7h-14.8V24.5h13c5.8,0,9.2,3.3,9.2,9c0,5.8-3,8.7-9,8.7h-4.5v16h6c3.3,0,6,1,7.9,3c2,2,2.8,4.1,2.8,7
		C617.3,74.6,613.2,78.7,606.6,78.7z"/>
	<path id="XMLID_2_" class="st6" d="M447.1,6.6c-24.8,0-44.9,20.1-44.9,45c0,23.3,17.6,42.4,40.3,44.7V63.7
		c-4.9-1.9-8.3-6.6-8.3-12.1c0-7.1,5.8-12.9,12.9-12.9c7.1,0,12.9,5.8,12.9,12.9c0,5.5-3.5,10.2-8.3,12.1v32.7
		c22.6-2.3,40.3-21.4,40.3-44.7C491.9,26.8,471.9,6.6,447.1,6.6z"/>
</g>
<g>
	<g id="XMLID_47_">
		<defs>
			<path id="XMLID_48_" d="M259.3,493.2c2.3-0.3,5-1.8,6.2-3.8c-4.2-5.7-6.3-11-6.9-18.4h5.3c0.3,6.6,2.1,10.8,4.3,14.4
				c2-4.2,3-7.9,3.3-14.4h5.3c-0.5,6.9-2.8,13-5.6,17.9c-3.2,5.6-7,8.2-11,8.8L259.3,493.2z"/>
		</defs>
		<clipPath id="XMLID_68_">
			<use xlink:href="#XMLID_48_"  style="overflow:visible;"/>
		</clipPath>
		
			<linearGradient id="XMLID_69_" gradientUnits="userSpaceOnUse" x1="140.0847" y1="348.7611" x2="230.3296" y2="348.7611" gradientTransform="matrix(0.992 -0.992 1.0049 1.0049 -234.5512 304.2034)">
			<stop  offset="0" style="stop-color:#FF2C47"/>
			<stop  offset="0.1743" style="stop-color:#C11F53"/>
			<stop  offset="0.574" style="stop-color:#280071"/>
		</linearGradient>
		<polygon id="XMLID_50_" class="st11" points="373.7,455.5 284.2,545 225.5,486.3 315,396.8 		"/>
	</g>
	<g id="XMLID_42_">
		<defs>
			<path id="XMLID_43_" d="M277.7,480.7c0-6.1,3.7-10.2,9.6-10.2c5.9,0,9.6,4.1,9.6,10.2c0,6.2-3.6,10.3-9.6,10.3
				C281.3,491,277.7,486.9,277.7,480.7z M291.4,480.7c0-3.6-1.4-5.9-4.1-5.9c-2.7,0-4.2,2.3-4.2,5.9c0,3.6,1.5,5.9,4.2,5.9
				C290,486.6,291.4,484.4,291.4,480.7z"/>
		</defs>
		<clipPath id="XMLID_70_">
			<use xlink:href="#XMLID_43_"  style="overflow:visible;"/>
		</clipPath>
		
			<linearGradient id="XMLID_71_" gradientUnits="userSpaceOnUse" x1="139.134" y1="348.7468" x2="229.3789" y2="348.7468" gradientTransform="matrix(0.992 -0.992 1.0049 1.0049 -234.5512 304.2034)">
			<stop  offset="0" style="stop-color:#FF2C47"/>
			<stop  offset="0.1743" style="stop-color:#C11F53"/>
			<stop  offset="0.574" style="stop-color:#280071"/>
		</linearGradient>
		<polygon id="XMLID_46_" class="st12" points="372.8,456.5 283.3,546 224.6,487.3 314.1,397.7 		"/>
	</g>
	<g id="XMLID_38_">
		<defs>
			<path id="XMLID_39_" d="M299.6,472.2c2.4-1,5.7-1.7,8.7-1.7c5.6,0,8.8,2.8,8.8,7.9v12.2h-5.3v-11.8c0-2.6-1.2-3.9-3.6-3.9
				c-1.2,0-2.4,0.2-3.4,0.7v15h-5.3V472.2z"/>
		</defs>
		<clipPath id="XMLID_72_">
			<use xlink:href="#XMLID_39_"  style="overflow:visible;"/>
		</clipPath>
		
			<linearGradient id="XMLID_73_" gradientUnits="userSpaceOnUse" x1="139.134" y1="348.7468" x2="229.3789" y2="348.7468" gradientTransform="matrix(0.992 -0.992 1.0049 1.0049 -234.5512 304.2034)">
			<stop  offset="0" style="stop-color:#FF2C47"/>
			<stop  offset="0.1743" style="stop-color:#C11F53"/>
			<stop  offset="0.574" style="stop-color:#280071"/>
		</linearGradient>
		<polygon id="XMLID_41_" class="st13" points="372.8,456.5 283.3,546 224.6,487.3 314.1,397.7 		"/>
	</g>
	<g id="XMLID_33_">
		<defs>
			<path id="XMLID_34_" d="M319.7,480.7c0-6.1,3.7-10.2,9.6-10.2c5.9,0,9.6,4.1,9.6,10.2c0,6.2-3.6,10.3-9.6,10.3
				C323.4,491,319.7,486.9,319.7,480.7z M333.5,480.7c0-3.6-1.4-5.9-4.1-5.9c-2.7,0-4.2,2.3-4.2,5.9c0,3.6,1.5,5.9,4.2,5.9
				C332,486.6,333.5,484.4,333.5,480.7z"/>
		</defs>
		<clipPath id="XMLID_74_">
			<use xlink:href="#XMLID_34_"  style="overflow:visible;"/>
		</clipPath>
		
			<linearGradient id="XMLID_75_" gradientUnits="userSpaceOnUse" x1="145.87" y1="355.3967" x2="236.1149" y2="355.3967" gradientTransform="matrix(0.992 -0.992 1.0049 1.0049 -234.5512 304.2034)">
			<stop  offset="0" style="stop-color:#FF2C47"/>
			<stop  offset="0.1743" style="stop-color:#C11F53"/>
			<stop  offset="0.574" style="stop-color:#280071"/>
		</linearGradient>
		<polygon id="XMLID_37_" class="st14" points="386.2,456.5 296.6,546 237.9,487.3 327.5,397.7 		"/>
	</g>
	<g id="XMLID_26_">
		<path id="XMLID_32_" class="st5" d="M384.9,480.9c-1.1-0.9-2.5-1.5-3.8-2c-1.7-0.7-3.2-1.3-3.2-2.5c0-0.5,0.2-1,0.7-1.3
			c0.4-0.3,1.1-0.5,1.8-0.5c2.2,0,3.9,1.5,3.9,1.5l0.4,0.4l1.9-3.6l-0.2-0.2c-0.1-0.1-2.1-2.2-6-2.2c-1.9,0-3.6,0.6-4.8,1.7
			c-1.3,1.1-2,2.6-2,4.3c0,1.6,0.6,2.9,1.9,4c1.1,0.9,2.4,1.5,3.7,2c1.8,0.8,3.3,1.4,3.3,2.6c0,0.9-0.6,1.9-2.3,1.9
			c-2.4,0-4.4-1.9-4.4-1.9l-0.4-0.4l-2.4,3.3l0.2,0.3c0,0,0.6,0.7,1.8,1.4c1.1,0.6,2.8,1.4,5.1,1.4c2,0,3.7-0.6,4.9-1.8
			c1.1-1.1,1.8-2.6,1.8-4.2C386.9,483.3,386.2,482,384.9,480.9z"/>
		<rect id="XMLID_31_" x="405" y="470.8" class="st5" width="4.4" height="19.9"/>
		<path id="XMLID_28_" class="st5" d="M402.2,481.8c-0.4-0.7-1-1.2-1.8-1.6c1.2-0.9,1.8-2.4,1.8-4c0-1.6-0.6-3-1.8-4
			c-1.1-0.9-2.7-1.4-4.5-1.4h-7.2v19.9h7.3c1.9,0,3.6-0.5,4.9-1.4c1.4-1.1,2.1-2.6,2.1-4.5C403,483.6,402.8,482.6,402.2,481.8z
			 M396.3,487h-3.4v-12.4h3c1.3,0,2.1,0.7,2.1,2.1c0,1.3-0.7,2-2.1,2h-1v3.7h1.4c0.8,0,1.4,0.2,1.8,0.7c0.5,0.5,0.6,0.9,0.6,1.6
			C398.8,486,397.8,487,396.3,487z"/>
		<path id="XMLID_27_" class="st6" d="M359.8,470.5c-5.7,0-10.3,4.6-10.3,10.3c0,5.3,4,9.7,9.2,10.2v-7.5c-1.1-0.4-1.9-1.5-1.9-2.8
			c0-1.6,1.3-3,3-3s3,1.3,3,3c0,1.3-0.8,2.3-1.9,2.8v7.5c5.2-0.5,9.2-4.9,9.2-10.2C370.1,475.1,365.5,470.5,359.8,470.5z"/>
	</g>
</g>
</svg>
